<svg xmlns="http://www.w3.org/2000/svg" xmlns:svg="http://www.w3.org/2000/svg" id="svg2" width="512" height="512" x="0" y="0" enable-background="new 0 0 595.275 311.111" version="1.1" viewBox="0 0 512 512" xml:space="preserve"><metadata id="metadata10"/><rect id="rect4" width="448" height="448" x="32" y="32" fill="#0082C9" rx="70" ry="70"/><path id="rect3350" fill="#fff" fill-opacity="1" fill-rule="evenodd" stroke="#000" stroke-dasharray="none" stroke-linecap="butt" stroke-linejoin="miter" stroke-miterlimit="4" stroke-opacity="0" stroke-width=".25" d="m 122.44396,89.125042 c -18.45887,0 -33.318923,14.115008 -33.318923,31.647818 l 0,143.74017 c 0,17.53283 14.860053,31.64784 33.318923,31.64784 l 38.24891,0 152.52844,126.43415 -49.39316,-126.43415 125.72788,0 c 18.45889,0 33.31893,-14.11501 33.31893,-31.64784 l 0,-143.74017 c 0,-17.53281 -14.86004,-31.647818 -33.31893,-31.647818 z m 9.05472,27.207518 249.00265,0 c 9.08866,0 16.40549,5.85418 16.40549,13.12558 l 0,8.53918 c 0,7.27142 -7.31683,13.12389 -16.40549,13.12389 l -249.00265,0 c -9.08867,0 -16.40551,-5.85247 -16.40551,-13.12389 l 0,-8.53918 c 0,-7.2714 7.31684,-13.12558 16.40551,-13.12558 z m 0,60.50813 249.00265,0 c 9.08866,0 16.40549,5.85418 16.40549,13.12559 l 0,8.53748 c 0,7.27141 -7.31683,13.12559 -16.40549,13.12559 l -249.00265,0 c -9.08867,0 -16.40551,-5.85418 -16.40551,-13.12559 l 0,-8.53748 c 0,-7.27141 7.31684,-13.12559 16.40551,-13.12559 z m 0,60.01043 89.95439,0 c 9.08866,0 16.40548,7.9877 16.40548,15.25911 l 0,6.40397 c 0,7.27139 -7.31682,13.12558 -16.40548,13.12558 l -89.95439,0 c -9.08867,0 -16.40551,-5.85419 -16.40551,-13.12558 l 0,-6.40397 c 0,-7.27141 7.31684,-15.25911 16.40551,-15.25911 z"/></svg>